<svg xmlns="http://www.w3.org/2000/svg" viewBox="0 0 20 20" fill="currentColor" stroke="currentColor"><path fill-rule="evenodd" d="M16.5 6a2.5 2.5 0 0 1-3.656 2.217l-2.896 2.896c.35.544.552 1.192.552 1.887v.023l1.148.128a2.501 2.501 0 1 1-.062 1.502l-1.419-.158v-.005a3.5 3.5 0 1 1-4.372-4.777l-.17-1.24a2.5 2.5 0 1 1 1.483-.231l.173 1.27a3.5 3.5 0 0 1 1.606.54l2.896-2.896A2.5 2.5 0 1 1 16.5 6M15 6a1 1 0 1 1-2 0 1 1 0 0 1 2 0m-8 9a2 2 0 1 0 0-4 2 2 0 0 0 0 4m7 0a1 1 0 1 0 0-2 1 1 0 0 0 0 2M7 6a1 1 0 1 1-2 0 1 1 0 0 1 2 0"/></svg>