<svg xmlns="http://www.w3.org/2000/svg" viewBox="0 0 20 20" fill="currentColor" stroke="currentColor"><path d="M14.75 3.5h-9.5A1.75 1.75 0 0 0 3.5 5.25v1a.75.75 0 0 0 1.5 0v-1A.25.25 0 0 1 5.25 5h9.5a.25.25 0 0 1 .25.25v1a.75.75 0 0 0 1.5 0v-1a1.75 1.75 0 0 0-1.75-1.75"/><path d="M6.25 5.75A.75.75 0 0 1 7 6.5c0 1.095-.283 2.69-.588 4.217-.1.499-.203.992-.301 1.467-.212 1.022-.407 1.96-.52 2.687a.1.1 0 0 0 .002.046q.004.015.02.031c.02.024.065.052.137.052h8.5c.072 0 .114-.028.132-.048a.1.1 0 0 0 .016-.027.1.1 0 0 0 .001-.045c-.107-.658-.282-1.505-.473-2.438-.113-.549-.232-1.127-.347-1.714C13.277 9.19 13 7.583 13 6.5a.75.75 0 0 1 1.5 0c0 .912.244 2.376.55 3.94.108.548.223 1.108.335 1.65.197.96.382 1.863.495 2.547.173 1.058-.673 1.863-1.63 1.863h-8.5c-.954 0-1.804-.803-1.64-1.859.118-.765.326-1.768.543-2.813.096-.466.195-.94.288-1.405.31-1.555.559-3.002.559-3.923a.75.75 0 0 1 .75-.75"/><path d="M10 6.75a.75.75 0 0 1 .75.75v3.94l.72-.72a.749.749 0 1 1 1.06 1.06l-2 2a.747.747 0 0 1-1.06 0l-2-2a.749.749 0 1 1 1.06-1.06l.72.72V7.5a.75.75 0 0 1 .75-.75"/></svg>