<svg xmlns="http://www.w3.org/2000/svg" viewBox="0 0 20 20" fill="currentColor" stroke="currentColor"><path d="M11.889 13.893a.75.75 0 0 0-.246-1.032L9.93 11.807A2.49 2.49 0 0 0 10.989 10h1.261a.75.75 0 0 0 0-1.5H11v-.75h1.25a.75.75 0 0 0 0-1.5h-4.5a.75.75 0 1 0 0 1.5H9.5v.75H7.75a.75.75 0 0 0 0 1.5h1.721a.99.99 0 0 1-.96.75c-.902 0-1.237 1.184-.468 1.657l2.814 1.732a.75.75 0 0 0 1.032-.246"/><path fill-rule="evenodd" d="M10 3a7 7 0 1 0 0 14 7 7 0 0 0 0-14m-5.5 7a5.5 5.5 0 1 1 11 0 5.5 5.5 0 0 1-11 0"/></svg>