<svg xmlns="http://www.w3.org/2000/svg" viewBox="0 0 20 20" fill="currentColor" stroke="currentColor"><path fill-rule="evenodd" d="m9.524 3.67-.002.002-.004.003-.012.01-.042.036a17 17 0 0 0-.686.624c-.438.42-1.023 1.02-1.61 1.743C6.022 7.499 4.75 9.518 4.75 11.63c0 .69.118 1.342.335 1.937l1.223-1.224a4.3 4.3 0 0 1-.058-.713c0-1.566.978-3.237 2.082-4.596A18 18 0 0 1 10 5.254q.086.079.184.173c.4.384.93.929 1.461 1.58l1.066-1.066a19.5 19.5 0 0 0-2.175-2.22l-.042-.036-.012-.01-.004-.003-.002-.001a.75.75 0 0 0-.953 0Zm.476.58.476-.58zm-.476-.58.476.58Zm0 0s0 .002.06.073Zm.06.073L10 4.25ZM13.803 6.97 5.53 15.243l-.002.002a.75.75 0 0 0 1.063 1.058l.308-.307A5.2 5.2 0 0 0 10 17c2 0 3.75-1.093 4.636-2.798a5.56 5.56 0 0 0 .614-2.572c0-1.099-.345-2.173-.836-3.15l.45-.45a.75.75 0 0 0-1.06-1.06ZM10 15.5a3.74 3.74 0 0 1-2.023-.583l5.309-5.308c.287.671.464 1.356.464 2.021 0 .704-.164 1.339-.445 1.88A3.68 3.68 0 0 1 10 15.5"/></svg>