<svg xmlns="http://www.w3.org/2000/svg" viewBox="0 0 20 20" fill="currentColor" stroke="currentColor"><path fill-rule="evenodd" d="M8.121 3.5h3.758c.395 0 .736 0 1.017.023.297.024.592.078.875.222.424.216.768.56.984.984.144.283.198.578.222.875.023.28.023.622.023 1.017v3.816A2.75 2.75 0 0 1 16.75 13v2A1.75 1.75 0 0 1 15 16.75H5A1.75 1.75 0 0 1 3.25 15v-2A2.75 2.75 0 0 1 5 10.437V6.621c0-.395 0-.736.023-1.017a2.3 2.3 0 0 1 .222-.875 2.25 2.25 0 0 1 .984-.984 2.3 2.3 0 0 1 .875-.222c.28-.023.622-.023 1.017-.023M8.15 5H10v5H6.5V6.65c0-.432 0-.712.018-.924.017-.204.045-.28.064-.316a.75.75 0 0 1 .328-.328c.037-.02.112-.047.316-.064.212-.017.492-.018.924-.018M12 5v5h1.5V6.65c0-.432 0-.712-.018-.924-.017-.204-.045-.28-.064-.316a.75.75 0 0 0-.327-.328c-.038-.02-.113-.047-.317-.064A10 10 0 0 0 12 5m-7.25 8c0-.69.56-1.25 1.25-1.25h8c.69 0 1.25.56 1.25 1.25v2a.25.25 0 0 1-.25.25H5a.25.25 0 0 1-.25-.25z"/></svg>