<svg xmlns="http://www.w3.org/2000/svg" viewBox="0 0 20 20" fill="currentColor" stroke="currentColor"><path fill-rule="evenodd" d="M5 11.997q.31.168.656.306c1.149.46 2.685.727 4.344.727s3.195-.268 4.344-.727c.573-.23 1.087-.52 1.47-.883.384-.363.686-.85.686-1.44V6.55c0-.59-.302-1.077-.687-1.44-.382-.362-.896-.654-1.469-.883C13.195 3.767 11.659 3.5 10 3.5s-3.195.268-4.344.727c-.573.23-1.087.52-1.47.883-.384.363-.686.85-.686 1.44v6.9c0 .59.302 1.077.687 1.44.382.362.896.654 1.469.883 1.149.46 2.685.727 4.344.727a.75.75 0 0 0 0-1.5c-1.517 0-2.856-.247-3.787-.62-.468-.187-.797-.391-.996-.58-.197-.187-.217-.305-.217-.35zM5.217 6.2C5.02 6.386 5 6.505 5 6.55s.02.164.217.35c.2.189.528.393.996.58.931.373 2.27.62 3.787.62s2.855-.247 3.787-.62c.468-.187.797-.391.996-.58.197-.186.217-.305.217-.35s-.02-.164-.217-.35c-.2-.189-.528-.393-.996-.58C12.855 5.247 11.517 5 10 5s-2.856.247-3.787.62c-.468.187-.797.391-.996.58M15 8.567a6 6 0 0 1-.656.306c-1.149.46-2.685.727-4.344.727s-3.195-.268-4.344-.727A6 6 0 0 1 5 8.567V9.98c0 .045.02.163.217.35.2.189.528.393.996.58.931.373 2.27.62 3.787.62s2.855-.247 3.787-.62c.468-.187.797-.391.996-.58.197-.187.217-.305.217-.35z"/><path d="M12.5 15.25a.75.75 0 0 1 .75-.75h1.25v-1.25a.75.75 0 0 1 1.5 0v1.25h1.25a.75.75 0 0 1 0 1.5H16v1.25a.75.75 0 0 1-1.5 0V16h-1.25a.75.75 0 0 1-.75-.75"/></svg>