<svg xmlns="http://www.w3.org/2000/svg" viewBox="0 0 20 20" fill="currentColor" stroke="currentColor"><path d="M8.75 6a.75.75 0 0 0 0 1.5h2.5a.75.75 0 0 0 0-1.5zM6.5 11.25a.75.75 0 0 1 .75-.75h2.5a.75.75 0 0 1 0 1.5h-2.5a.75.75 0 0 1-.75-.75M7.25 13a.75.75 0 0 0 0 1.5h4.5a.75.75 0 0 0 0-1.5z"/><path fill-rule="evenodd" d="M6.75 3A2.75 2.75 0 0 0 4 5.75v8.5A2.75 2.75 0 0 0 6.75 17h6.5A2.75 2.75 0 0 0 16 14.25v-8.5A2.75 2.75 0 0 0 13.25 3zM5.5 7.5h.75a.75.75 0 0 0 0-1.5H5.5v-.25c0-.69.56-1.25 1.25-1.25h6.5c.69 0 1.25.56 1.25 1.25V6h-.75a.75.75 0 0 0 0 1.5h.75v6.75c0 .69-.56 1.25-1.25 1.25h-6.5c-.69 0-1.25-.56-1.25-1.25z"/></svg>