<svg xmlns="http://www.w3.org/2000/svg" viewBox="0 0 20 20" fill="currentColor" stroke="currentColor"><path fill-rule="evenodd" d="M3.445 13.894c-.175.356-.33.669-.43.931-.102.269-.193.59-.14.94.073.473.337.897.73 1.171.29.202.619.262.905.288.28.026.628.026 1.025.026h8.93c.397 0 .745 0 1.025-.026.286-.026.615-.086.905-.288.393-.274.657-.698.73-1.172.053-.349-.038-.67-.14-.939-.101-.262-.255-.575-.43-.931l-4.461-9.083c-.218-.442-.403-.82-.575-1.103-.17-.278-.401-.595-.765-.769a1.75 1.75 0 0 0-1.508 0c-.364.174-.595.49-.765.77-.172.282-.357.66-.575 1.102zm1.009 1.805a.25.25 0 0 1-.094-.15 1 1 0 0 1 .057-.188c.072-.19.195-.44.389-.836l4.431-9.02c.237-.484.393-.799.525-1.016.084-.137.132-.19.146-.204A.3.3 0 0 1 10 4.268V15.75H5.569c-.44 0-.72 0-.922-.02a.8.8 0 0 1-.193-.031"/></svg>