<svg xmlns="http://www.w3.org/2000/svg" viewBox="0 0 20 20" fill="currentColor" stroke="currentColor"><path d="M4.5 6.75c0-.69.56-1.25 1.25-1.25h1.514c.473 0 .906.268 1.118.691l.17.342a1.75 1.75 0 0 0 1.566.967h4.132c.69 0 1.25.56 1.25 1.25v.5a.75.75 0 0 0 1.5 0v-.5A2.75 2.75 0 0 0 14.25 6h-4.132a.25.25 0 0 1-.224-.138l-.17-.342A2.75 2.75 0 0 0 7.264 4H5.75A2.75 2.75 0 0 0 3 6.75v6.5A2.75 2.75 0 0 0 5.75 16h7a.75.75 0 0 0 0-1.5h-7c-.69 0-1.25-.56-1.25-1.25z"/><path d="M12.75 11.5a.75.75 0 0 0 0 1.5h4.5a.75.75 0 0 0 0-1.5z"/></svg>