<svg xmlns="http://www.w3.org/2000/svg" viewBox="0 0 20 20" fill="currentColor" stroke="currentColor"><path d="M14 4.5A.75.75 0 0 1 14 6c-.906 0-1.412.17-1.665.296q-.048.024-.085.046v7.343l.068.034c.257.12.77.281 1.682.281a.75.75 0 0 1 0 1.5c-1.088 0-1.825-.191-2.318-.422a3 3 0 0 1-.182-.093 3 3 0 0 1-.182.093c-.493.23-1.23.422-2.318.422A.75.75 0 0 1 9 14c.912 0 1.425-.16 1.682-.28l.068-.035V6.342l-.085-.046C10.412 6.169 9.905 6 9 6a.75.75 0 0 1 0-1.5c1.094 0 1.838.205 2.335.454q.089.045.165.089.076-.045.165-.089c.497-.248 1.24-.454 2.335-.454"/><path d="M4.5 9.25C4.5 8.56 5.06 8 5.75 8H9a.75.75 0 0 0 0-1.5H5.75A2.75 2.75 0 0 0 3 9.25v1.5a2.75 2.75 0 0 0 2.75 2.75H9A.75.75 0 0 0 9 12H5.75c-.69 0-1.25-.56-1.25-1.25zM14.125 6.5a.75.75 0 0 0 0 1.5h.125c.69 0 1.25.56 1.25 1.25v1.5c0 .69-.56 1.25-1.25 1.25h-.125a.75.75 0 0 0 0 1.5h.125A2.75 2.75 0 0 0 17 10.75v-1.5a2.75 2.75 0 0 0-2.75-2.75z"/></svg>