<svg xmlns="http://www.w3.org/2000/svg" viewBox="0 0 20 20" fill="currentColor" stroke="currentColor"><path fill-rule="evenodd" d="M7.705 5.494a.75.75 0 0 0-1.41 0l-2 5.5a.75.75 0 1 0 1.41.512l.187-.514A1 1 0 0 0 6 11h2.111l.184.506a.75.75 0 1 0 1.41-.512zM7 7.944 7.566 9.5H6.434L7 7.945ZM15.25 8.25h-.1a6.8 6.8 0 0 1-.495 1.84 5.8 5.8 0 0 1-.795 1.334c.295.164.631.3 1.016.4a.75.75 0 0 1-.377 1.452 5.7 5.7 0 0 1-1.78-.793 5.7 5.7 0 0 1-1.78.793.75.75 0 1 1-.377-1.452c.385-.1.721-.236 1.016-.4a5.8 5.8 0 0 1-.794-1.334 6.8 6.8 0 0 1-.496-1.84h-.038a.75.75 0 1 1 0-1.5H12V6a.75.75 0 0 1 1.5 0v.75h1.75a.75.75 0 0 1 0 1.5m-3.447 0c.053.331.157.779.359 1.248.136.318.316.644.557.952.24-.308.42-.634.557-.952a5.4 5.4 0 0 0 .359-1.248z"/><path fill-rule="evenodd" d="M14.5 15.75h-3.879l-1.56 1.56A1.5 1.5 0 0 1 6.5 16.25v-.5h-1a3.5 3.5 0 0 1-3.5-3.5v-6a3.5 3.5 0 0 1 3.5-3.5h9a3.5 3.5 0 0 1 3.5 3.5v6a3.5 3.5 0 0 1-3.5 3.5m-6.5.5 2-2h4.5a2 2 0 0 0 2-2v-6a2 2 0 0 0-2-2h-9a2 2 0 0 0-2 2v6a2 2 0 0 0 2 2H8z"/></svg>