<svg xmlns="http://www.w3.org/2000/svg" viewBox="0 0 20 20" fill="currentColor" stroke="currentColor"><path fill-rule="evenodd" d="M5.25 16.5a1.75 1.75 0 0 1-1.75-1.75v-9.5c0-.966.784-1.75 1.75-1.75h1.5c.966 0 1.75.784 1.75 1.75v9.5a1.75 1.75 0 0 1-1.75 1.75zM5 14.75c0 .138.112.25.25.25h1.5a.25.25 0 0 0 .25-.25v-9.5A.25.25 0 0 0 6.75 5h-1.5a.25.25 0 0 0-.25.25z"/><path d="M11.25 16.5a1.75 1.75 0 0 1-1.75-1.75v-.5a.75.75 0 0 1 1.5 0v.5c0 .138.112.25.25.25h.5a.75.75 0 0 1 0 1.5zM14.75 16.5a1.75 1.75 0 0 0 1.75-1.75v-.5a.75.75 0 0 0-1.5 0v.5a.25.25 0 0 1-.25.25h-.5a.75.75 0 0 0 0 1.5zM9.5 5.25c0-.966.784-1.75 1.75-1.75h.5a.75.75 0 0 1 0 1.5h-.5a.25.25 0 0 0-.25.25v.5a.75.75 0 0 1-1.5 0zM16.5 5.25a1.75 1.75 0 0 0-1.75-1.75h-.5a.75.75 0 0 0 0 1.5h.5a.25.25 0 0 1 .25.25v.5a.75.75 0 0 0 1.5 0zM10.25 8.25A.75.75 0 0 1 11 9v2a.75.75 0 0 1-1.5 0V9a.75.75 0 0 1 .75-.75M16.5 9A.75.75 0 0 0 15 9v2a.75.75 0 0 0 1.5 0z"/></svg>