<svg xmlns="http://www.w3.org/2000/svg" viewBox="0 0 20 20" fill="currentColor" stroke="currentColor"><path d="M9.853 6.532C9.023 5.588 7.858 5 6.557 5 4.037 5 2 6.944 2 9.582s2.04 4.56 4.56 4.56c1.302 0 2.467-.592 3.297-1.531q.004 0 .005-.004l.004-.005a.274.274 0 0 0-.033-.364l-1.182-1.053a.235.235 0 0 0-.326.017 2.48 2.48 0 0 1-1.768.773c-1.26 0-2.28-1.006-2.28-2.397s1.02-2.41 2.28-2.41c.66.005 1.297.281 1.768.773.09.092.231.096.326.013l1.182-1.05.008-.008a.27.27 0 0 0 .012-.364M16.459 11.075l1.479 2.335a.4.4 0 0 1 .062.224.377.377 0 0 1-.368.386h-2.264a.4.4 0 0 1-.293-.132l-.868-1.154c-.343-.43-.789-.294-.789.255v.772c0 .145-.107.259-.244.259h-2.065c-.136 0-.244-.114-.244-.259v-1.606a.13.13 0 0 1 .116-.128c1.194-.07 2.173-1.15 2.173-2.418 0-1.26-.971-2.362-2.173-2.432a.123.123 0 0 1-.116-.127V5.395c0-.145.108-.259.244-.259h3.557c1.656 0 2.999 1.348 2.999 3.055 0 .996-.426 1.861-1.103 2.344h-.004a.404.404 0 0 0-.1.54Z"/></svg>