<svg xmlns="http://www.w3.org/2000/svg" viewBox="0 0 20 20" fill="currentColor" stroke="currentColor"><path d="M5.702 4.253a.625.625 0 0 1 1.096 0l.196.358c.207.378.517.688.895.895l.358.196a.625.625 0 0 1 0 1.097l-.358.196a2.25 2.25 0 0 0-.895.894l-.196.359a.625.625 0 0 1-1.096 0l-.196-.359a2.25 2.25 0 0 0-.895-.894l-.358-.196a.625.625 0 0 1 0-1.097l.358-.196a2.25 2.25 0 0 0 .895-.895z"/><path fill-rule="evenodd" d="M12.948 7.89c-.18-1.167-1.852-1.19-2.064-.029l-.03.164a3.76 3.76 0 0 1-3.088 3.031c-1.15.189-1.173 1.833-.03 2.054l.105.02a3.82 3.82 0 0 1 3.029 3.029l.032.165c.233 1.208 1.963 1.208 2.196 0l.025-.129A3.84 3.84 0 0 1 16.2 13.15c1.184-.216 1.12-1.928-.071-2.107a3.79 3.79 0 0 1-3.18-3.154Zm-.944 6.887a5.34 5.34 0 0 1 2.542-2.647 5.3 5.3 0 0 1-2.628-2.548A5.26 5.26 0 0 1 9.43 12.09a5.33 5.33 0 0 1 2.574 2.687"/></svg>