<svg xmlns="http://www.w3.org/2000/svg" viewBox="0 0 20 20" fill="currentColor" stroke="currentColor"><path fill-rule="evenodd" d="M4.963 17.4A1.5 1.5 0 0 1 4 16V5a2.5 2.5 0 0 1 2.5-2.5h7A2.5 2.5 0 0 1 16 5v11a1.5 1.5 0 0 1-2.615 1.003l-1.135-1.26-1.135 1.26a1.5 1.5 0 0 1-2.23 0l-1.135-1.26-1.135 1.26a1.5 1.5 0 0 1-1.652.397m7.388-3.4h-.203a1 1 0 0 0-.641.326L10 16l-1.507-1.674A1 1 0 0 0 7.852 14h-.204a1 1 0 0 0-.641.326L5.5 16V5a1 1 0 0 1 1-1h7a1 1 0 0 1 1 1v11l-1.507-1.674a1 1 0 0 0-.642-.326"/><path d="M10.25 5a.75.75 0 0 0-.75.75V6a2 2 0 1 0 0 4h1a.5.5 0 0 1 0 1H8.25a.75.75 0 0 0 0 1.5H9v.25a.75.75 0 0 0 1.5 0v-.25a2 2 0 1 0 0-4h-1a.5.5 0 0 1 0-1h2.25a.75.75 0 0 0 0-1.5H11v-.25a.75.75 0 0 0-.75-.75"/></svg>