<svg xmlns="http://www.w3.org/2000/svg" viewBox="0 0 20 20" fill="currentColor" stroke="currentColor"><path d="M2.47 16.47a.749.749 0 1 0 1.06 1.06l14-14a.749.749 0 1 0-1.06-1.06zM2.47 9.53a.75.75 0 0 1 0-1.06l6-6a.749.749 0 1 1 1.06 1.06l-6 6a.75.75 0 0 1-1.06 0M2.47 5.53a.75.75 0 0 1 0-1.06l2-2a.749.749 0 1 1 1.06 1.06l-2 2a.75.75 0 0 1-1.06 0M10.47 16.47a.749.749 0 1 0 1.06 1.06l6-6a.749.749 0 1 0-1.06-1.06zM6.47 17.53a.75.75 0 0 1 0-1.06l10-10a.749.749 0 1 1 1.06 1.06l-10 10a.75.75 0 0 1-1.06 0M2.47 12.47a.749.749 0 1 0 1.06 1.06l10-10a.749.749 0 1 0-1.06-1.06zM14.47 17.53a.75.75 0 0 1 0-1.06l2-2a.749.749 0 1 1 1.06 1.06l-2 2a.75.75 0 0 1-1.06 0"/></svg>