<svg xmlns="http://www.w3.org/2000/svg" viewBox="0 0 20 20" fill="currentColor" stroke="currentColor"><path fill-rule="evenodd" d="M5.324 9h5.602c.258 0 .494 0 .692.016.213.018.446.057.676.175.33.168.598.435.765.765.118.23.158.463.175.676.016.198.016.434.016.692v3.352c0 .258 0 .494-.016.692a1.8 1.8 0 0 1-.175.676c-.167.33-.435.598-.764.765-.23.118-.464.157-.677.175-.198.016-.434.016-.692.016H5.324c-.258 0-.494 0-.692-.016a1.8 1.8 0 0 1-.676-.175 1.75 1.75 0 0 1-.765-.765 1.8 1.8 0 0 1-.175-.676C3 15.17 3 14.934 3 14.676v-3.352c0-.258 0-.494.016-.692a1.8 1.8 0 0 1 .175-.676c.168-.33.435-.597.765-.765a1.8 1.8 0 0 1 .676-.175C4.83 9 5.066 9 5.324 9m-.693 1.53h.001zm.002-.001a1 1 0 0 1 .121-.018c.13-.01.304-.011.596-.011h5.55c.292 0 .467 0 .596.011a.6.6 0 0 1 .12.018q.069.036.105.104c.003.01.011.043.018.121.01.13.011.304.011.596v3.3c0 .292 0 .467-.011.596a.6.6 0 0 1-.018.12.25.25 0 0 1-.104.105 1 1 0 0 1-.121.018c-.13.01-.304.011-.596.011H5.35c-.292 0-.467 0-.596-.011a.6.6 0 0 1-.12-.018.25.25 0 0 1-.105-.104 1 1 0 0 1-.018-.121 9 9 0 0 1-.011-.596v-3.3c0-.292 0-.467.011-.596a.6.6 0 0 1 .018-.12.25.25 0 0 1 .104-.105m-.103.102zm0 4.738zm.1.101h.002zm6.99 0h-.002zm.1-.1v-.002zm0-4.74v.002-.001Zm-.102-.1zM17 9.5V7a2.75 2.75 0 0 0-2.75-2.75h-2.94l.72-.72a.749.749 0 1 0-1.06-1.06l-2 2a.747.747 0 0 0 0 1.06l2 2a.749.749 0 1 0 1.06-1.06l-.72-.72h2.94c.69 0 1.25.56 1.25 1.25v2.5a.75.75 0 0 0 1.5 0"/></svg>