<svg xmlns="http://www.w3.org/2000/svg" viewBox="0 0 20 20" fill="currentColor" stroke="currentColor"><path d="M5.5 4.5a1 1 0 1 1-2 0 1 1 0 0 1 2 0"/><path fill-rule="evenodd" d="M13.189 14.25a4 4 0 0 1-5.648-2H6.75a.75.75 0 0 1 0-1.5h.5c0-.729.195-1.412.535-2H6.75a.75.75 0 0 1 0-1.5h2.562a4 4 0 0 1 5.033 6.034l1.935 1.936a.75.75 0 1 1-1.06 1.06zm.561-3.5a2.5 2.5 0 1 1-5 0 2.5 2.5 0 0 1 5 0"/><path d="M4.5 9a1 1 0 1 0 0-2 1 1 0 0 0 0 2M5.5 11.5a1 1 0 1 1-2 0 1 1 0 0 1 2 0M6.75 3.75a.75.75 0 0 0 0 1.5h6.5a.75.75 0 0 0 0-1.5z"/></svg>