<svg xmlns="http://www.w3.org/2000/svg" viewBox="0 0 20 20" fill="currentColor" stroke="currentColor"><path d="M12.506 3.973a15 15 0 0 1-1.059-.775l-.354-.283a1.75 1.75 0 0 0-2.186 0l-.317.253a15.3 15.3 0 0 1-3.217 1.976l-.847.384a1.71 1.71 0 0 0-1.01 1.628c.083 1.865.507 3.422 1.096 4.71l1.146-1.145c-.401-1.025-.681-2.228-.744-3.632-.003-.068.037-.152.133-.195l.846-.385a16.8 16.8 0 0 0 3.534-2.17l.317-.253a.25.25 0 0 1 .312 0l.354.283q.447.357.916.683z"/><path fill-rule="evenodd" d="M4.553 14.046a.75.75 0 0 0 1.066 1.056l.64-.64a11.1 11.1 0 0 0 2.99 2.496 1.53 1.53 0 0 0 1.502 0c1.352-.753 5.454-3.55 5.734-9.783a1.71 1.71 0 0 0-1.002-1.623l-.215-.1.604-.603a.75.75 0 1 0-1.06-1.06L4.558 14.041zm5.426 1.602a9.5 9.5 0 0 1-2.655-2.251l6.814-6.814.717.33a.21.21 0 0 1 .131.195c-.246 5.489-3.827 7.906-4.965 8.54a.04.04 0 0 1-.02.006q-.007.002-.022-.006"/></svg>