<svg xmlns="http://www.w3.org/2000/svg" viewBox="0 0 20 20" fill="currentColor" stroke="currentColor"><path fill-rule="evenodd" d="M2.76 9.882a.8.8 0 0 0-.008.179 7.25 7.25 0 1 0 14.495 0 .8.8 0 0 0-.006-.179 7.25 7.25 0 0 0-14.482 0Zm3.518-4.015A5.73 5.73 0 0 1 9.25 4.548V9.25H7.48a7.5 7.5 0 0 0-1.202-3.383M5.234 7.032a5.7 5.7 0 0 0-.897 2.218h1.634a6 6 0 0 0-.737-2.218m.737 3.718h-1.7c.078.9.363 1.742.808 2.476a6 6 0 0 0 .892-2.476m.092 3.691a5.73 5.73 0 0 0 3.187 1.51V10.75H7.48a7.47 7.47 0 0 1-1.417 3.691m9.6-5.191a5.7 5.7 0 0 0-.887-2.203 6 6 0 0 0-.73 2.203zm-3.126 0a7.5 7.5 0 0 1 1.197-3.373 5.73 5.73 0 0 0-2.984-1.329V9.25zm-1.787 1.5h1.787a7.47 7.47 0 0 0 1.41 3.681 5.73 5.73 0 0 1-3.197 1.52zm4.979 0a5.7 5.7 0 0 1-.8 2.461 6 6 0 0 1-.882-2.461z"/></svg>