<svg xmlns="http://www.w3.org/2000/svg" viewBox="0 0 20 20" fill="currentColor" stroke="currentColor"><path fill-rule="evenodd" d="M3 4.75A.75.75 0 0 1 3.75 4h12.5a.75.75 0 0 1 0 1.5H3.75A.75.75 0 0 1 3 4.75m7 3.5a.75.75 0 0 1 .75-.75h5.5a.75.75 0 0 1 0 1.5h-5.5a.75.75 0 0 1-.75-.75m0 3.5a.75.75 0 0 1 .75-.75h5.5a.75.75 0 0 1 0 1.5h-5.5a.75.75 0 0 1-.75-.75m-7 3.5a.75.75 0 0 1 .75-.75h12.5a.75.75 0 0 1 0 1.5H3.75a.75.75 0 0 1-.75-.75m.96-2.35c-.41.262-.96-.02-.96-.493V7.593c0-.473.55-.755.96-.493l3.765 2.408a.58.58 0 0 1 0 .985z"/></svg>