<svg xmlns="http://www.w3.org/2000/svg" viewBox="0 0 20 20" fill="currentColor" stroke="currentColor"><path fill-rule="evenodd" d="M6.25 3a2.25 2.25 0 1 0 1 4.266v3.984A2.75 2.75 0 0 0 10 14h.25a.75.75 0 0 0 0-1.5H10c-.69 0-1.25-.56-1.25-1.25V6h2.878a2.251 2.251 0 1 0 0-1.5H8.372A2.25 2.25 0 0 0 6.25 3M5.5 5.25a.75.75 0 1 1 1.5 0 .75.75 0 0 1-1.5 0m7.5 0a.75.75 0 1 1 1.5 0 .75.75 0 0 1-1.5 0"/><path d="M16.143 15.611a.75.75 0 0 1-.786 1.278l-2.814-1.732c-.769-.473-.433-1.657.469-1.657.463 0 .852-.32.96-.75H12.75a.75.75 0 0 1 0-1.5H14v-.75h-1.25a.75.75 0 0 1 0-1.5h3.5a.75.75 0 0 1 0 1.5h-.75v.75h.75a.75.75 0 0 1 0 1.5h-.761a2.49 2.49 0 0 1-1.06 1.807z"/></svg>