<svg xmlns="http://www.w3.org/2000/svg" viewBox="0 0 20 20" fill="currentColor" stroke="currentColor"><path fill-rule="evenodd" d="M4 5.25a2.25 2.25 0 0 1 4.372-.75h3.256a2.251 2.251 0 1 1 0 1.5H8.75v5.25c0 .69.56 1.25 1.25 1.25h.25a.75.75 0 0 1 0 1.5H10a2.75 2.75 0 0 1-2.75-2.75V7.266A2.25 2.25 0 0 1 4 5.25m2.25-.75a.75.75 0 1 0 0 1.5.75.75 0 0 0 0-1.5m7.5 0a.75.75 0 1 0 0 1.5.75.75 0 0 0 0-1.5"/><path d="M15 8.75a1.75 1.75 0 0 0-1.75 1.75v2h-.5a.75.75 0 0 0 0 1.5h.5v1.5h-.5a.75.75 0 0 0 0 1.5h3.5a.75.75 0 0 0 0-1.5h-1.5V14h.5a.75.75 0 0 0 0-1.5h-.5v-2a.25.25 0 0 1 .25-.25h.5v1a.75.75 0 0 0 1.5 0V10c0-.69-.56-1.25-1.25-1.25z"/></svg>